<svg width="20" height="20" viewBox="0 0 20 20" fill="none" xmlns="http://www.w3.org/2000/svg">
<mask id="mask0_2_117" style="mask-type:alpha" maskUnits="userSpaceOnUse" x="0" y="0" width="20" height="20">
<rect width="20" height="20" fill="#D9D9D9"/>
</mask>
<g mask="url(#mask0_2_117)">
<path d="M7 10.5C7.23611 10.5 7.43403 10.4201 7.59375 10.2604C7.75347 10.1007 7.83333 9.90278 7.83333 9.66667C7.83333 9.43056 7.75347 9.23264 7.59375 9.07292C7.43403 8.91319 7.23611 8.83333 7 8.83333C6.76389 8.83333 6.56597 8.91319 6.40625 9.07292C6.24653 9.23264 6.16667 9.43056 6.16667 9.66667C6.16667 9.90278 6.24653 10.1007 6.40625 10.2604C6.56597 10.4201 6.76389 10.5 7 10.5ZM10.3333 10.5C10.5694 10.5 10.7674 10.4201 10.9271 10.2604C11.0868 10.1007 11.1667 9.90278 11.1667 9.66667C11.1667 9.43056 11.0868 9.23264 10.9271 9.07292C10.7674 8.91319 10.5694 8.83333 10.3333 8.83333C10.0972 8.83333 9.89931 8.91319 9.73958 9.07292C9.57986 9.23264 9.5 9.43056 9.5 9.66667C9.5 9.90278 9.57986 10.1007 9.73958 10.2604C9.89931 10.4201 10.0972 10.5 10.3333 10.5ZM13.6667 10.5C13.9028 10.5 14.1007 10.4201 14.2604 10.2604C14.4201 10.1007 14.5 9.90278 14.5 9.66667C14.5 9.43056 14.4201 9.23264 14.2604 9.07292C14.1007 8.91319 13.9028 8.83333 13.6667 8.83333C13.4306 8.83333 13.2326 8.91319 13.0729 9.07292C12.9132 9.23264 12.8333 9.43056 12.8333 9.66667C12.8333 9.90278 12.9132 10.1007 13.0729 10.2604C13.2326 10.4201 13.4306 10.5 13.6667 10.5ZM2 19.6667V4.66667C2 4.20833 2.16319 3.81597 2.48958 3.48958C2.81597 3.16319 3.20833 3 3.66667 3H17C17.4583 3 17.8507 3.16319 18.1771 3.48958C18.5035 3.81597 18.6667 4.20833 18.6667 4.66667V14.6667C18.6667 15.125 18.5035 15.5174 18.1771 15.8438C17.8507 16.1701 17.4583 16.3333 17 16.3333H5.33333L2 19.6667ZM4.625 14.6667H17V4.66667H3.66667V15.6042L4.625 14.6667Z" fill="#FEFEFE"/>
</g>
</svg>
